#!OML:ASF E:\CV Data\Top Level 1\Subject 1\Session 1\player.ASF
:FULLY-SPECIFIED
:DEGREES
492
root 7.68887 16.1308 -9.42578 -163.859 -124.822 -188.729
lowerback 22.0635 5.64896 6.68244
upperback 5.201 8.89946 4.53573
thorax -6.23317 4.10536 -1.18651
lowerneck -19.4974 1.10401 -8.62747
upperneck 6.34096 3.29657 2.60398
head 4.83751 1.56756 2.50393
rclavicle -4.92986e-014 3.18055e-015
rhumerus 1.71682 14.8043 -83.1525
rradius 111.821
rwrist -35.7249
rhand -40.0477 -3.03272
rfingers 7.12502
rthumb -13.0137 -32.6068
lclavicle -4.92986e-014 3.18055e-015
lhumerus -32.3022 -16.0008 88.4744
lradius 96.4116
lwrist -18.5787
lhand -16.6413 4.00169
lfingers 7.12502
lthumb 9.58142 33.7638
rfemur -21.8644 -18.4887 20.6874
rtibia 56.1836
rfoot -33.5235 -18.7471
rtoes -15.0264
lfemur -50.7195 -0.954945 -0.942351
ltibia 35.4449
lfoot 7.1528 -6.41815
ltoes -16.4032
493
root 7.63218 16.0855 -9.37156 -164.328 -126.336 -188.395
lowerback 21.9534 5.90428 6.88989
upperback 5.08523 9.29541 4.61814
thorax -6.26287 4.29569 -1.30339
lowerneck -19.0063 0.217354 -9.13746
upperneck 6.28378 2.13144 3.17246
head 4.79903 1.02424 2.65511
rclavicle 1.19271e-014 -7.4743e-014
rhumerus 4.30065 14.7853 -81.9693
rradius 110.77
rwrist -37.8164
rhand -40.2681 -3.69793
rfingers 7.12502
rthumb -13.2262 -33.2583
lclavicle 1.19271e-014 -7.4743e-014
lhumerus -30.6487 -16.4496 87.0569
lradius 97.2858
lwrist -18.6754
lhand -15.2066 5.0412
lfingers 7.12502
lthumb 10.9655 34.7348
rfemur -21.3065 -19.0725 20.5218
rtibia 56.7034
rfoot -33.8503 -19.0408
rtoes -15.7726
lfemur -51.523 -1.49529 -1.40709
ltibia 35.9662
lfoot 8.13736 -7.06365
ltoes -15.9099
494
root 7.57812 16.0375 -9.31709 -164.853 -127.898 -188.047
lowerback 21.9687 6.12081 7.11128
upperback 4.97767 9.65332 4.70106
thorax -6.34692 4.46321 -1.42979
lowerneck -18.5461 -0.647442 -9.67978
upperneck 6.25657 1.00209 3.73313
head 4.78459 0.494543 2.81488
rclavicle -1.78906e-013 -7.95139e-014
rhumerus 6.9535 14.4759 -80.7649
rradius 109.359
rwrist -39.8236
rhand -40.57 -4.205
rfingers 7.12502
rthumb -13.5172 -33.7463
lclavicle -1.78906e-013 -7.95139e-014
lhumerus -28.6763 -16.9703 85.6619
lradius 97.9806
lwrist -18.7485
lhand -13.7115 6.14339
lfingers 7.12502
lthumb 12.4073 35.7552
rfemur -20.7505 -19.7523 20.2947
rtibia 57.3653
rfoot -34.1297 -19.2016
rtoes -16.3992
lfemur -52.2887 -2.02287 -1.97973
ltibia 36.7005
lfoot 8.62647 -7.94021
ltoes -15.282
495
root 7.52812 15.9858 -9.26312 -165.411 -129.543 -187.675
lowerback 22.0754 6.27327 7.36562
upperback 4.88588 9.94126 4.78219
thorax -6.45773 4.5936 -1.56752
lowerneck -18.1419 -1.48222 -10.2321
upperneck 6.2352 -0.0791434 4.24338
head 4.78936 -0.0167465 2.9659
rclavicle 8.0309e-014 -7.95139e-014
rhumerus 9.6459 13.9459 -79.5731
rradius 107.594
rwrist -41.5282
rhand -40.9871 -4.68934
rfingers 7.12502
rthumb -13.9192 -34.2035
lclavicle 8.0309e-014 -7.95139e-014
lhumerus -26.4192 -17.5043 84.3011
lradius 98.5037
lwrist -18.814
lhand -12.2296 7.23637
lfingers 7.12502
lthumb 13.8357 36.7562
rfemur -20.2525 -20.5507 20.0128
rtibia 58.2014
rfoot -34.3396 -19.2257
rtoes -16.8353
lfemur -53.0601 -2.6052 -2.62
ltibia 37.6216
lfoot 8.65295 -8.94551
ltoes -14.6382
496
root 7.48131 15.9309 -9.21114 -166.002 -131.241 -187.28
lowerback 22.2731 6.37405 7.62022
upperback 4.82447 10.1672 4.86308
thorax -6.58484 4.69178 -1.69917
lowerneck -17.8243 -2.28057 -10.7848
upperneck 6.21304 -1.10116 4.69735
head 4.81364 -0.503306 3.10458
rclavicle 3.97569e-015 1.90833e-014
rhumerus 12.3421 13.2536 -78.4104
rradius 105.557
rwrist -42.8263
rhand -41.5414 -5.33892
rfingers 7.12502
rthumb -14.4533 -34.8156
lclavicle 3.97569e-015 1.90833e-014
lhumerus -23.9044 -18.0438 83
lradius 98.8645
lwrist -18.7942
lhand -10.7765 8.31146
lfingers 7.12502
lthumb 15.2358 37.7304
rfemur -19.8222 -21.4253 19.6693
rtibia 59.2247
rfoot -34.4773 -19.1151
rtoes -17.011
lfemur -53.8086 -3.23887 -3.30202
ltibia 38.664
lfoot 8.3126 -9.9718
ltoes -13.9826
497
root 7.43724 15.8729 -9.16184 -166.607 -132.985 -186.854
lowerback 22.5346 6.42638 7.86451
upperback 4.79299 10.3309 4.93894
thorax -6.716 4.7589 -1.82133
lowerneck -17.567 -3.04338 -11.322
upperneck 6.14999 -2.06884 5.08354
head 4.83904 -0.966765 3.22297
rclavicle 4.37326e-014 -1.27222e-014
rhumerus 14.9894 12.4511 -77.2868
rradius 103.357
rwrist -43.6611
rhand -42.2294 -6.26489
rfingers 7.12502
rthumb -15.1161 -35.6929
lclavicle 4.37326e-014 -1.27222e-014
lhumerus -21.2099 -18.5826 81.7901
lradius 99.0832
lwrist -18.7054
lhand -9.43801 9.36514
lfingers 7.12502
lthumb 16.5248 38.6815
rfemur -19.4865 -22.3502 19.2692
rtibia 60.4281
rfoot -34.5184 -18.9032
rtoes -16.9881
lfemur -54.5382 -3.91501 -4.0165
ltibia 39.7411
lfoot 7.74673 -10.9743
ltoes -13.4086
498
root 7.39403 15.8131 -9.11618 -167.204 -134.725 -186.411
lowerback 22.8577 6.45994 8.05991
upperback 4.7828 10.4637 5.01061
thorax -6.86486 4.81018 -1.92101
lowerneck -17.3389 -3.76961 -11.8427
upperneck 6.02228 -2.98566 5.42649
head 4.8519 -1.40665 3.32809
rclavicle 6.44062e-014 -4.45278e-014
rhumerus 17.5197 11.5715 -76.224
rradius 101.12
rwrist -44.0705
rhand -42.9595 -7.61748
rfingers 7.12502
rthumb -15.8194 -36.9911
lclavicle 6.44062e-014 -4.45278e-014
lhumerus -18.3826 -19.1183 80.701
lradius 99.1616
lwrist -18.4844
lhand -8.24724 10.4117
lfingers 7.12502
lthumb 17.6709 39.6287
rfemur -19.2485 -23.2642 18.826
rtibia 61.7779
rfoot -34.4455 -18.6305
rtoes -16.8519
lfemur -55.2117 -4.5755 -4.75875
ltibia 40.7625
lfoot 7.03441 -11.9401
ltoes -12.8405
499
root 7.35022 15.7533 -9.07335 -167.786 -136.434 -185.954
lowerback 23.231 6.48466 8.19494
upperback 4.78864 10.5748 5.07197
thorax -7.03187 4.85047 -2.00011
lowerneck -17.1164 -4.46539 -12.3391
upperneck 5.81875 -3.86591 5.75044
head 4.8452 -1.82809 3.42542
rclavicle -1.02573e-013 6.83819e-014
rhumerus 19.8815 10.633 -75.2688
rradius 98.9458
rwrist -44.1419
rhand -43.6711 -9.06493
rfingers 7.12502
rthumb -16.5046 -38.3829
lclavicle -1.02573e-013 6.83819e-014
lhumerus -15.5825 -19.6351 79.779
lradius 99.1805
lwrist -18.1718
lhand -7.23067 11.5154
lfingers 7.12502
lthumb 18.649 40.6414
rfemur -19.1003 -24.138 18.3409
rtibia 63.2635
rfoot -34.3012 -18.3083
rtoes -16.6429
lfemur -55.8331 -5.16328 -5.55841
ltibia 41.7444
lfoot 6.17348 -12.913
ltoes -12.1479
500
root 7.30461 15.6949 -9.03446 -168.319 -138.102 -185.503
lowerback 23.6539 6.50213 8.25138
upperback 4.79402 10.6645 5.13148
thorax -7.24028 4.87897 -2.0414
lowerneck -16.9277 -5.11782 -12.8403
upperneck 5.61994 -4.68612 6.08909
head 4.84712 -2.21911 3.5325
rclavicle 5.08889e-014 -2.54444e-014
rhumerus 22.0356 9.67636 -74.4725
rradius 96.8868
rwrist -43.9536
rhand -44.1716 -10.5107
rfingers 7.12502
rthumb -16.9864 -39.788
lclavicle 5.08889e-014 -2.54444e-014
lhumerus -13.0188 -20.0854 79.0656
lradius 99.2447
lwrist -17.7986
lhand -6.34796 12.686
lfingers 7.12502
lthumb 19.4978 41.7283
rfemur -19.0066 -24.951 17.8566
rtibia 64.7341
rfoot -34.0286 -17.9695
rtoes -16.4249
lfemur -56.323 -5.59755 -6.44166
ltibia 42.4902
lfoot 5.31006 -14.0085
ltoes -11.3053
501
root 7.25619 15.6166 -8.99717 -168.786 -139.73 -185.076
lowerback 24.1186 6.50999 8.24021
upperback 4.79639 10.7304 5.18252
thorax -7.48588 4.89467 -2.05597
lowerneck -16.8247 -5.72377 -13.2771
upperneck 5.45419 -5.44557 6.40119
head 4.87098 -2.57998 3.62427
rclavicle 6.20208e-014 1.74931e-014
rhumerus 23.9775 8.71215 -73.9056
rradius 94.9675
rwrist -43.5834
rhand -44.3783 -11.674
rfingers 7.12502
rthumb -17.1854 -40.934
lclavicle 6.20208e-014 1.74931e-014
lhumerus -10.8146 -20.4636 78.5511
lradius 99.4105
lwrist -17.4156
lhand -5.64056 13.9292
lfingers 7.12502
lthumb 20.1779 42.9013
rfemur -18.9999 -25.7115 17.3707
rtibia 66.2677
rfoot -33.7267 -17.6036
rtoes -16.187
lfemur -56.8314 -5.83336 -7.41593
ltibia 43.1591
lfoot 4.49362 -15.2413
ltoes -10.3718
502
root 7.20635 15.5906 -8.96703 -169.135 -141.346 -184.705
lowerback 24.5883 6.4862 8.19474
upperback 4.78944 10.7483 5.22779
thorax -7.75299 4.88669 -2.04734
lowerneck -16.8609 -6.27456 -13.6325
upperneck 5.36884 -6.12699 6.67188
head 4.93554 -2.90242 3.69348
rclavicle -7.07673e-014 2.06736e-014
rhumerus 25.7231 7.79791 -73.6104
rradius 93.2139
rwrist -43.092
rhand -44.3056 -12.4256
rfingers 7.12502
rthumb -17.1154 -41.6917
lclavicle -7.07673e-014 2.06736e-014
lhumerus -9.04605 -20.7423 78.2041
lradius 99.7116
lwrist -17.033
lhand -5.03477 15.2082
lfingers 7.12502
lthumb 20.76 44.1177
rfemur -18.9808 -26.4066 17.0376
rtibia 67.5485
rfoot -33.2791 -17.3076
rtoes -15.9534
lfemur -57.1197 -5.88649 -8.47172
ltibia 43.588
lfoot 3.71687 -16.566
ltoes -9.28822
503
root 7.15456 15.5456 -8.93833 -169.338 -142.98 -184.396
lowerback 25.0271 6.41169 8.14126
upperback 4.76696 10.6968 5.26567
thorax -8.02627 4.84568 -2.02005
lowerneck -17.0104 -6.76116 -13.8873
upperneck 5.32084 -6.72203 6.88014
head 5.01889 -3.18263 3.73165
rclavicle 1.90833e-014 1.59028e-014
rhumerus 27.2813 6.99354 -73.5995
rradius 91.6675
rwrist -42.5336
rhand -44.0328 -12.827
rfingers 7.12502
rthumb -16.8528 -42.1157
lclavicle 1.90833e-014 1.59028e-014
lhumerus -7.74693 -20.9068 77.9758
lradius 100.151
lwrist -16.6979
lhand -4.52024 16.4644
lfingers 7.12502
lthumb 21.2543 45.319
rfemur -19.0901 -27.0828 16.8012
rtibia 68.8285
rfoot -32.8356 -17.0101
rtoes -15.7057
lfemur -57.5806 -5.79182 -9.55397
ltibia 44.0256
lfoot 3.15671 -17.9832
ltoes -8.11058
504
root 7.10149 15.5051 -8.91243 -169.386 -144.641 -184.162
lowerback 25.4167 6.28012 8.10479
upperback 4.73388 10.5721 5.30168
thorax -8.28756 4.77064 -1.9763
lowerneck -17.2602 -7.17499 -14.0423
upperneck 5.28414 -7.21976 7.02433
head 5.10754 -3.41506 3.74029
rclavicle 1.47896e-013 9.54166e-015
rhumerus 28.6513 6.36113 -73.8259
rradius 90.3862
rwrist -41.9836
rhand -43.685 -13.0395
rfingers 7.12502
rthumb -16.5179 -42.3564
lclavicle 1.47896e-013 9.54166e-015
lhumerus -6.8977 -20.9558 77.8204
lradius 100.721
lwrist -16.379
lhand -4.05554 17.6331
lfingers 7.12502
lthumb 21.7006 46.4368
rfemur -19.2814 -27.7304 16.7161
rtibia 69.9686
rfoot -32.3435 -16.729
rtoes -15.4522
lfemur -58.121 -5.63196 -10.6023
ltibia 44.3727
lfoot 2.85907 -19.4005
ltoes -6.8756
505
root 7.04796 15.4679 -8.88793 -169.289 -146.328 -183.996
lowerback 25.7407 6.08582 8.11457
upperback 4.69692 10.3719 5.33588
thorax -8.51563 4.66143 -1.92742
lowerneck -17.5611 -7.51715 -14.1143
upperneck 5.21507 -7.62486 7.11131
head 5.17973 -3.60229 3.72578
rclavicle -6.36111e-015 -3.02153e-014
rhumerus 29.8209 5.94533 -74.2105
rradius 89.4199
rwrist -41.4951
rhand -43.4065 -13.1126
rfingers 7.12502
rthumb -16.2498 -42.4517
lclavicle -6.36111e-015 -3.02153e-014
lhumerus -6.44472 -20.8997 77.7071
lradius 101.382
lwrist -16.0976
lhand -3.6677 18.6505
lfingers 7.12502
lthumb 22.073 47.4107
rfemur -19.5734 -28.3469 16.7789
rtibia 71.0454
rfoot -31.8756 -16.4667
rtoes -15.2603
lfemur -58.8257 -5.50268 -11.5563
ltibia 44.8078
lfoot 2.69859 -20.7502
ltoes -5.72426
